<svg data-v-0dd9719b="" version="1.0" xmlns="http://www.w3.org/2000/svg" xmlns:xlink="http://www.w3.org/1999/xlink" width="100%" height="100%" viewBox="0 0 340.000000 250.000000" preserveAspectRatio="xMidYMid meet" color-interpolation-filters="sRGB" style="margin: auto;"> <rect data-v-0dd9719b="" x="0" y="0" width="100%" height="100%" fill="#ffffff" fill-opacity="1" class="background"></rect> <rect data-v-0dd9719b="" x="0" y="0" width="100%" height="100%" fill="url(#watermark)" fill-opacity="1" class="watermarklayer"></rect> <g data-v-0dd9719b="" fill="#41b883" class="icon-text-wrapper icon-svg-group iconsvg" transform="translate(47.535003662109375,95)"><g class="iconsvg-imagesvg" transform="translate(0,0)"><g><rect fill="#41b883" fill-opacity="0" stroke-width="2" x="0" y="0" width="60" height="60" class="image-rect"></rect> <svg filter="url(#colors568647197)" x="0" y="0" width="60" height="60" filtersec="colorsf2704664799" class="image-svg-svg primary" style="overflow: visible;"><svg fill="#000000" xmlns="http://www.w3.org/2000/svg" xmlns:xlink="http://www.w3.org/1999/xlink" xmlns:serif="http://www.serif.com/" viewBox="0 0 100 100" version="1.1" xml:space="preserve" style="" x="0px" y="0px" fill-rule="evenodd" clip-rule="evenodd" stroke-linejoin="round" stroke-miterlimit="1.41421"><rect serif:id="Page 81" x="0" y="0" width="100" height="100" style="" fill="none"></rect><path d="M66.048,73.394l28.555,21.606l-44.603,-0.398l-23.394,-28.554l-21.606,28.555l0.398,-44.603l28.554,-23.394l-28.555,-21.606l44.603,0.398l23.394,28.554l21.606,-28.555l-0.398,44.603l-28.554,23.394Zm-16.048,-34.644l-11.25,11.25l11.25,11.25l11.25,-11.25l-11.25,-11.25Z"></path></svg></svg> <defs><filter id="colors568647197"><feColorMatrix type="matrix" values="0 0 0 0 0.25390625  0 0 0 0 0.71875  0 0 0 0 0.51171875  0 0 0 1 0" class="icon-fecolormatrix"></feColorMatrix></filter> <filter id="colorsf2704664799"><feColorMatrix type="matrix" values="0 0 0 0 0.99609375  0 0 0 0 0.99609375  0 0 0 0 0.99609375  0 0 0 1 0" class="icon-fecolormatrix"></feColorMatrix></filter> <filter id="colorsb536432592"><feColorMatrix type="matrix" values="0 0 0 0 0  0 0 0 0 0  0 0 0 0 0  0 0 0 1 0" class="icon-fecolormatrix"></feColorMatrix></filter></defs></g></g> <g transform="translate(67,1.363748550415039)"><g data-gra="path-name" fill-rule="" class="tp-name iconsvg-namesvg" transform="translate(0,0)"><g transform="scale(1)"><g><path d="M27.29-36.52L27.29-36.52 27.69-36.83Q34.1-35.55 35.73-32.17L35.73-32.17Q36.69-30.15 35.46-28.65L35.46-28.65Q34.28-27.16 32.34-27.91L32.34-27.91Q31.77-28.13 31.25-28.52L31.25-28.52Q30.54-32.17 27.29-36.52ZM31.07-17.89L31.07-17.89 18.76-17.89Q18.63-17.58 18.37-16.96 18.11-16.35 17.97-16.08L17.97-16.08Q20.08-11.43 25.22-8.13L25.22-8.13Q29.05-12.57 31.07-17.89ZM30.98-19.16L34.1-22.06 38.98-17.49Q38.5-16.83 37-16.79L37-16.79Q34.1-10.37 29.27-5.98L29.27-5.98Q35.11-3.25 43.73-1.54L43.73-1.54 43.68-1.01Q39.24-0.35 38.72 3.87L38.72 3.87Q30.67 1.23 25.49-2.94L25.49-2.94Q17.71 2.2 5.89 4L5.89 4 5.63 3.47Q16.08 0.35 22.68-5.58L22.68-5.58Q19.03-9.58 17.36-14.85L17.36-14.85Q11.82-3.96 1.67 1.45L1.67 1.45 1.19 1.1Q11.6-7.87 15.51-24.39L15.51-24.39 10.37-24.39 8.31-22.1 3.34-25.36Q3.82-25.8 5.05-26.37L5.05-26.37Q6.99-31.33 8.13-36.39L8.13-36.39 15.03-34.45Q14.72-33.49 13.14-33.53L13.14-33.53Q12-29.88 10.5-25.71L10.5-25.71 15.82-25.71Q17.09-31.29 17.62-38.23L17.62-38.23 25.14-37.09Q24.92-35.99 23.38-35.86L23.38-35.86Q22.63-30.63 21.36-25.71L21.36-25.71 35.29-25.71 38.23-29.53Q41.57-26.89 43.59-25.09L43.59-25.09Q43.42-24.39 42.36-24.39L42.36-24.39 21.05-24.39Q20.52-22.59 19.29-19.16L19.29-19.16 30.98-19.16ZM80.9-37.53L80.9-37.53 87.06-33.57Q86.62-32.96 85.34-33.22L85.34-33.22Q79.67-28.3 71.81-25.22L71.81-25.22 71.46-25.88Q76.6-30.1 80.9-37.53ZM71.15-12.04L71.15-12.04 70.84-12.66Q77.12-17.49 81.3-26.24L81.3-26.24 87.85-22.54Q87.41-21.84 86.09-22.06L86.09-22.06Q80.24-15.47 71.15-12.04ZM65.7-38.19L65.7-38.19 70.97-33.13Q70.05-32.43 68.03-33.22L68.03-33.22Q62.23-32.08 55.15-31.86L55.15-31.86Q52.43-24.08 47.2-20.39L47.2-20.39 46.67-20.7Q49.7-26.76 50.32-34.94L50.32-34.94 55.85-33.44Q62.18-35.82 65.7-38.19ZM62.49-31.42L62.49-31.42 62.97-31.73Q69.04-29.93 70.53-26.37L70.53-26.37Q71.46-24.17 70.22-22.72L70.22-22.72Q69.08-21.36 67.32-22.24L67.32-22.24Q67.02-22.41 66.67-22.68L66.67-22.68Q66.49-24.83 65.28-27.22 64.07-29.62 62.49-31.42ZM56.21-30.63L56.21-30.63 56.73-30.85Q61.22-28.83 61.83-25.88L61.83-25.88Q62.27-23.86 60.82-22.81L60.82-22.81Q59.33-21.75 57.74-22.98L57.74-22.98Q57.48-23.2 57.26-23.47L57.26-23.47Q57.74-26.85 56.21-30.63ZM70.71-14.5L62.23-14.5 62.23-11.82Q68.77-10.72 70.44-7.43L70.44-7.43Q71.46-5.54 70.31-4.13L70.31-4.13Q69.21-2.77 67.37-3.52L67.37-3.52Q66.97-3.69 66.53-4L66.53-4Q65.83-7.25 62.23-11.21L62.23-11.21 62.23 2.55Q62.23 2.9 60.84 3.45 59.46 4 58.14 4L58.14 4 57.13 4 57.13-7.87Q53.17-2.94 46.8 0.44L46.8 0.44 46.36-0.09Q52.25-5.49 55.24-14.5L55.24-14.5 47.42-14.5 47.07-15.78 57.13-15.78 57.13-21.45 63.76-20.83Q63.63-19.86 62.23-19.64L62.23-19.64 62.23-15.78 64.6-15.78 67.24-19.07Q70.09-16.83 71.89-15.21L71.89-15.21Q71.72-14.5 70.71-14.5L70.71-14.5ZM82.44-13.58L82.44-13.58 89.3-10.15Q88.86-9.45 87.45-9.62L87.45-9.62Q80.51 0.09 68.16 3.82L68.16 3.82 67.9 3.25Q77.52-2.42 82.44-13.58ZM125.33-34.54L127.75-37.31 132.76-33.35Q132.14-32.65 130.91-32.39L130.91-32.39 130.91-1.89Q130.91 0.97 129.51 2.35 128.1 3.74 123.62 4.09L123.62 4.09Q123.35 1.58 122.21 0.7L122.21 0.7Q120.45-0.66 117.33-1.05L117.33-1.05 117.33-1.67Q123.27-1.27 124.63-1.27L124.63-1.27Q125.77-1.27 125.77-2.33L125.77-2.33 125.77-33.27 120.89-33.27Q120.72-24.04 120.1-19.78L120.1-19.78Q124.28-15.42 124.37-11.56L124.37-11.56Q124.45-9.18 122.96-8.61L122.96-8.61Q121.86-8.22 120.5-9.23L120.5-9.23Q120.1-10.9 118.83-13.84L118.83-13.84Q116.46-6.28 110.57-1.45L110.57-1.45 109.95-2.11Q114.7-8.83 115.66-19.42L115.66-19.42Q113.42-22.81 110.7-25.88L110.7-25.88 111.23-26.19Q114.21-24.52 115.93-23.33L115.93-23.33Q116.06-26.54 116.06-33.27L116.06-33.27 110.13-33.27Q109.95-24.57 108.98-19.2L108.98-19.2Q112.59-14.99 112.41-11.51L112.41-11.51Q112.28-9.4 110.87-9.1L110.87-9.1Q109.86-8.83 108.68-9.76L108.68-9.76Q108.41-11.21 107.49-13.36L107.49-13.36Q105.07-6.37 100.15-1.67L100.15-1.67 99.54-2.29Q103.67-9.05 104.77-18.76L104.77-18.76Q102.3-22.68 99.76-25.62L99.76-25.62 100.37-25.93Q103.05-24.43 105.12-22.81L105.12-22.81Q105.34-27.25 105.34-33.27L105.34-33.27 99.1-33.27 99.1 2.11Q99.1 2.68 97.78 3.36 96.46 4.04 94.97 4.04L94.97 4.04 94.04 4.04 94.04-36.83 99.49-34.54 125.33-34.54ZM138.78-8.53L138.78-8.53 136.49-14.11Q137.68-14.37 138.12-14.72L138.12-14.72Q140.8-17.09 144.27-22.94L144.27-22.94Q141.15-21.31 139.35-20.48L139.35-20.48Q139.04-20.17 138.6-19.91L138.6-19.91 136.36-25.36Q137.29-25.62 137.64-25.88L137.64-25.88Q139.04-27.47 140.67-31.4 142.29-35.33 142.82-38.06L142.82-38.06 149.33-35.82Q149.11-35.02 147.79-35.02L147.79-35.02Q146.29-32.61 144.03-29.9 141.77-27.2 139.61-25.27L139.61-25.27Q141.28-25.31 145.77-25.66L145.77-25.66Q147.17-28.39 147.96-30.63L147.96-30.63 153.85-27.33Q153.41-26.54 152.14-26.72L152.14-26.72Q150.25-23.86 146.93-20.32 143.61-16.79 140.36-14.19L140.36-14.19Q144.76-14.63 152.18-15.69L152.18-15.69 152.27-15.16Q146.12-11.82 139.75-9.18L139.75-9.18Q139.44-8.79 138.78-8.53ZM138.96 2.02L138.96 2.02 136.54-4.09Q142.03-4.97 152.45-7.69L152.45-7.69 152.53-7.21Q147.44-3.43 140.14 0.79L140.14 0.79Q139.83 1.71 138.96 2.02ZM161.02-12.7L168.22-12.7 170.33-15.07Q167.17-16.88 165.01-18.9L165.01-18.9Q161.72-16.35 156.84-14.28L156.84-14.28 161.02-12.7ZM160.53-11.38L160.53-0.48 168.4-0.48 168.4-11.38 160.53-11.38ZM169.1-31.07L169.1-31.07 161.5-31.07Q160.22-29.14 159.7-28.43L159.7-28.43Q161.72-25.71 164.66-23.55L164.66-23.55Q167.34-26.85 169.1-31.07ZM169.06-32.3L171.96-35.02 176.48-30.89Q176.13-30.37 174.59-30.23L174.59-30.23Q172.13-25.27 168.13-21.49L168.13-21.49Q172.71-19.25 179.12-18.11L179.12-18.11 178.99-17.58Q176.04-16.48 175.52-12.83L175.52-12.83Q174.11-13.32 172.57-13.93L172.57-13.93 175.34-11.87Q174.86-11.29 173.58-11.03L173.58-11.03 173.58 2.33Q173.58 2.46 173.08 2.72 172.57 2.99 171.52 3.23 170.46 3.47 169.32 3.47L169.32 3.47 168.4 3.47 168.4 0.75 160.53 0.75 160.53 2.72Q160.53 2.9 160.05 3.16 159.57 3.43 158.58 3.67 157.59 3.91 156.45 3.91L156.45 3.91 155.57 3.91 155.57-13.75Q153.33-12.96 150.82-12.3L150.82-12.3 150.51-12.88Q157.68-16 162.82-21.36L162.82-21.36Q160.93-23.64 158.99-27.55L158.99-27.55Q155.92-23.69 152.14-21.36L152.14-21.36 151.57-21.8Q153.85-24.79 155.76-29.11 157.68-33.44 158.69-38.06L158.69-38.06 165.32-35.86Q164.97-34.94 163.56-34.98L163.56-34.98Q163.04-33.75 162.25-32.3L162.25-32.3 169.06-32.3Z" transform="translate(-1.190000057220459, 38.22999954223633)"></path></g> <!----> <!----> <!----> <!----> <!----> <!----> <!----></g></g> <g data-gra="path-slogan" fill-rule="" class="tp-slogan iconsvg-slogansvg" fill="#35495e" transform="translate(38.034996032714844,48.31999969482422)"><!----> <!----> <g transform="scale(1, 1)"><g transform="scale(1)"><path d="M6.42-3.89L2.20-3.89L2.20 0L1.03 0L1.03-8.58L6.98-8.58L6.98-7.59L2.20-7.59L2.20-4.92L6.42-4.92L6.42-3.89ZM13.83 0L12.98-2.48L9.52-2.48L8.63 0L7.45 0L10.69-8.58L12-8.58L15.09 0L13.83 0ZM11.25-7.31L9.89-3.52L12.56-3.52L11.30-7.31L11.25-7.31ZM26.63-6.05L26.63-6.05L25.50-6.05Q25.08-7.78 23.11-7.83L23.11-7.83Q20.39-7.69 20.30-4.36L20.30-4.36Q20.30-0.80 23.16-0.80L23.16-0.80Q25.13-0.84 25.59-3.19L25.59-3.19L26.72-3.19Q26.20 0.05 22.92 0.14L22.92 0.14Q19.17 0 19.08-4.31L19.08-4.31Q19.27-8.63 23.11-8.81L23.11-8.81Q26.16-8.72 26.63-6.05ZM33.75 0L32.91-2.48L29.44-2.48L28.55 0L27.38 0L30.61-8.58L31.92-8.58L35.02 0L33.75 0ZM31.17-7.31L29.81-3.52L32.48-3.52L31.22-7.31L31.17-7.31ZM36.23-8.58L37.41-8.58L37.41 0L36.23 0L36.23-8.58ZM44.11-8.58L48.42-1.64L48.42-8.58L49.55-8.58L49.55 0L48.23 0L43.88-6.94L43.83-6.94L43.83 0L42.70 0L42.70-8.58L44.11-8.58ZM52.64-1.03L57.80-1.03L57.80 0L51.47 0L51.47-8.58L57.70-8.58L57.70-7.59L52.64-7.59L52.64-4.92L57.33-4.92L57.33-3.89L52.64-3.89L52.64-1.03ZM61.50-7.59L58.59-7.59L58.59-8.58L65.53-8.58L65.53-7.59L62.63-7.59L62.63 0L61.50 0L61.50-7.59ZM71.34-7.13L71.30-7.13L69.33 0L68.11 0L65.86-8.58L67.08-8.58L68.72-1.59L68.77-1.59L70.69-8.58L71.95-8.58L73.88-1.59L73.92-1.59L75.52-8.58L76.78-8.58L74.53 0L73.31 0L71.34-7.13ZM84.66-4.27L84.66-4.27Q84.47-7.64 81.66-7.83L81.66-7.83Q78.80-7.69 78.66-4.27L78.66-4.27Q78.80-0.94 81.66-0.80L81.66-0.80Q84.47-0.98 84.66-4.27ZM85.83-4.27L85.83-4.27Q85.55 0 81.66 0.14L81.66 0.14Q77.72 0 77.44-4.27L77.44-4.27Q77.67-8.72 81.66-8.81L81.66-8.81Q85.55-8.67 85.83-4.27ZM91.31-3.70L88.50-3.70L88.50 0L87.33 0L87.33-8.58L91.31-8.58Q94.17-8.58 94.17-6.28L94.17-6.28Q94.17-4.88 92.95-4.22L92.95-4.22Q93.98-3.94 93.98-2.58L93.98-2.58L94.08-1.03Q94.03-0.38 94.50-0.19L94.50-0.19L94.50 0L93.05 0Q92.91-0.61 92.86-2.16L92.86-2.16Q92.91-3.70 91.31-3.70L91.31-3.70ZM91.41-7.64L88.50-7.64L88.50-4.69L91.22-4.69Q92.95-4.69 92.95-6.19L92.95-6.19Q92.95-7.64 91.41-7.64L91.41-7.64ZM98.34-4.31L96.98-3.05L96.98 0L95.81 0L95.81-8.58L96.98-8.58L96.98-4.41L101.16-8.58L102.80-8.58L99.19-5.11L102.89 0L101.34 0L98.34-4.31Z" transform="translate(-1.03125, 8.8125)"></path></g></g></g></g></g><defs v-gra="od"></defs></svg>